<svg width="749" height="156" viewBox="0 0 749 156" fill="none" xmlns="http://www.w3.org/2000/svg">
<g clip-path="url(#clip0_2049_15)">
<mask id="mask0_2049_15" style="mask-type:luminance" maskUnits="userSpaceOnUse" x="0" y="0" width="749" height="156">
<path d="M748.547 0H0V155.98H748.547V0Z" fill="white"/>
</mask>
<g mask="url(#mask0_2049_15)">
<path d="M567.484 113.655H588.255V135.602H567.484V113.655Z" fill="white"/>
<path d="M711.709 133.25H691.329V122.276C691.329 122.276 690.938 122.668 690.546 122.668L690.154 123.06C690.154 123.06 690.154 123.06 689.762 123.06C680.748 129.331 670.558 132.858 659.585 132.858C645.476 132.858 632.935 127.763 622.745 117.965C612.556 108.167 607.461 96.0183 607.461 81.5177C607.461 67.017 612.556 54.8678 622.745 44.6782C632.935 34.4885 645.476 29.7856 659.585 29.7856C673.693 29.7856 685.843 34.8804 696.032 44.6782C706.222 54.8678 711.709 67.017 711.709 81.5177V132.858V133.25ZM681.14 103.465C687.018 97.586 689.762 90.1397 689.762 81.5177C689.762 72.8957 687.018 65.8413 681.14 59.5707C675.261 53.3002 668.207 50.1649 659.585 50.1649C650.963 50.1649 643.516 53.3002 637.638 59.5707C631.759 65.8413 629.016 72.8957 629.016 81.5177C629.016 90.1397 632.151 97.1941 637.638 103.465C643.516 109.735 650.963 112.478 659.585 112.478C668.207 112.478 675.261 109.343 681.14 103.465Z" fill="white"/>
<path d="M724.25 24.2983H748.548V42.3262H724.25V24.2983ZM748.548 133.249V51.3401H724.25V132.857H748.548V133.249Z" fill="white"/>
<path d="M21.9469 122.099H0V0H21.9469V122.099ZM21.9469 133.249H0V111.302H21.9469V133.249Z" fill="white"/>
<path d="M127.372 81.5177C127.372 73.2876 124.237 65.8413 118.358 59.5707C112.48 53.3002 105.425 50.5568 96.8037 50.5568C88.1816 50.5568 81.1273 53.6921 75.2486 59.5707C69.37 65.4494 66.2347 72.8957 66.2347 81.5177V132.858H44.6797V81.5177C44.6797 67.4089 49.7745 54.8678 59.9642 44.6782C70.1538 34.4885 82.6949 29.7856 96.8037 29.7856C110.912 29.7856 123.453 34.8804 133.643 44.6782C143.832 54.8678 148.927 67.017 148.927 81.5177V132.858H127.372V81.5177Z" fill="white"/>
<path d="M208.89 71.3274C213.201 71.3274 217.12 72.1112 221.039 73.6789C224.958 75.2465 228.093 77.598 230.837 80.3413C233.58 83.0847 235.54 86.22 237.499 90.1391C239.067 93.6663 239.851 97.9773 239.851 101.896C239.851 105.816 239.067 110.127 237.499 114.046C235.931 117.573 233.58 121.1 230.837 123.843C228.093 126.587 224.958 128.938 221.039 130.506C217.512 132.073 213.201 132.857 208.89 132.857H159.901V112.478H209.282C212.025 112.478 214.376 110.91 216.336 108.951C218.296 106.991 219.079 104.64 219.079 101.896C219.079 99.153 217.904 96.4096 215.944 94.4501C213.985 92.4905 211.241 91.3148 208.498 91.3148H189.294C184.983 91.3148 181.064 90.1391 177.537 88.5714C173.618 87.0038 170.483 84.6523 167.739 81.909C164.996 79.1656 163.036 76.0303 161.469 72.1112C159.901 68.1921 159.117 64.273 159.117 60.3539C159.117 56.4348 159.901 52.1238 161.469 48.2047C163.036 44.2857 165.388 41.1504 168.131 38.407C170.874 35.6636 174.01 33.3122 177.929 31.7445C181.456 30.1769 185.767 29.3931 190.078 29.3931H218.687V49.7724H190.078C187.335 49.7724 184.591 50.9481 182.632 52.9077C180.672 54.8672 179.496 57.2187 179.496 60.3539C179.496 63.4892 180.672 65.8407 182.632 67.8002C184.591 69.7598 186.943 70.9355 190.078 70.9355H208.89V71.3274Z" fill="white"/>
<path d="M337.822 45.0702C348.012 55.2599 353.107 67.4091 353.107 81.9097C353.107 96.4104 348.012 108.56 337.822 118.357C327.632 128.547 315.091 133.25 300.983 133.25C289.617 133.25 279.428 130.115 270.414 123.452V155.981H248.859V81.9097C248.859 67.801 253.953 55.6518 264.143 45.0702C274.333 34.8806 286.482 30.1777 300.983 30.1777C315.483 30.1777 327.632 35.2725 337.822 45.0702ZM322.93 103.857C328.808 97.978 331.552 90.5317 331.552 81.9097C331.552 73.2877 328.808 66.2333 322.93 59.9628C317.051 53.6922 309.997 50.9489 301.375 50.9489C292.753 50.9489 285.698 54.0841 279.819 59.9628C273.941 66.2333 271.197 73.2877 271.197 81.9097C271.197 90.5317 273.941 97.978 279.819 103.857C285.698 109.735 292.753 112.871 301.375 112.871C309.997 112.871 317.051 109.735 322.93 103.857Z" fill="white"/>
<path d="M496.941 49.7731C514.969 49.7731 529.47 64.2738 529.47 82.3016C529.47 100.33 514.969 114.83 496.941 114.83H414.64C396.612 114.83 382.112 100.33 382.112 82.3016C382.112 64.2738 396.612 49.7731 414.64 49.7731H496.941ZM496.941 30.1777H414.64C385.639 30.1777 362.516 53.6922 362.516 82.3016C362.516 110.911 386.031 134.426 414.64 134.426H496.941C525.943 134.426 549.066 110.911 549.066 82.3016C549.066 53.6922 525.551 30.1777 496.941 30.1777Z" fill="url(#paint0_linear_2049_15)"/>
</g>
</g>
<defs>
<linearGradient id="paint0_linear_2049_15" x1="362.516" y1="82.3016" x2="549.066" y2="82.3016" gradientUnits="userSpaceOnUse">
  <stop offset="0%" stop-color="#00FFD1"/>
  <stop offset="50%" stop-color="#4F44E0"/>
  <stop offset="100%" stop-color="#00FFD1"/>
  <animateTransform
    attributeName="gradientTransform"
    type="translate"
    from="-50 0"
    to="50 0"
    dur="5s"
    repeatCount="indefinite"
  />
</linearGradient>
<clipPath id="clip0_2049_15">
<rect width="748.547" height="155.98" fill="white"/>
</clipPath>
</defs>
</svg>
