<svg width="749" height="156" viewBox="0 0 749 156" fill="none" xmlns="http://www.w3.org/2000/svg">
<g clip-path="url(#clip0_5_2803)">
<path d="M567.484 113.655H588.255V135.602H567.484V113.655Z" fill="white"/>
<path d="M711.708 133.25H691.328V122.276C691.328 122.276 690.937 122.668 690.545 122.668L690.153 123.06C690.153 123.06 690.153 123.06 689.761 123.06C680.747 129.331 670.557 132.858 659.584 132.858C645.475 132.858 632.934 127.763 622.744 117.965C612.555 108.167 607.46 96.0182 607.46 81.5176C607.46 67.0169 612.555 54.8677 622.744 44.6781C632.934 34.4884 645.475 29.7855 659.584 29.7855C673.692 29.7855 685.842 34.8803 696.031 44.6781C706.221 54.8677 711.708 67.0169 711.708 81.5176V132.858V133.25ZM681.139 103.465C687.017 97.5859 689.761 90.1396 689.761 81.5176C689.761 72.8956 687.017 65.8412 681.139 59.5706C675.26 53.3001 668.206 50.1648 659.584 50.1648C650.962 50.1648 643.515 53.3001 637.637 59.5706C631.758 65.8412 629.015 72.8956 629.015 81.5176C629.015 90.1396 632.15 97.194 637.637 103.465C643.515 109.735 650.962 112.478 659.584 112.478C668.206 112.478 675.26 109.343 681.139 103.465Z" fill="white"/>
<path d="M724.248 24.2982H748.546V42.3261H724.248V24.2982ZM748.546 133.249V51.34H724.248V132.857H748.546V133.249Z" fill="white"/>
<path d="M21.9469 122.099H0V0H21.9469V122.099ZM21.9469 133.249H0V111.302H21.9469V133.249Z" fill="white"/>
<path d="M127.371 81.5176C127.371 73.2875 124.236 65.8412 118.357 59.5706C112.479 53.3001 105.424 50.5567 96.8023 50.5567C88.1802 50.5567 81.1259 53.692 75.2472 59.5706C69.3686 65.4493 66.2333 72.8956 66.2333 81.5176V132.858H44.6783V81.5176C44.6783 67.4088 49.7731 54.8677 59.9628 44.6781C70.1524 34.4884 82.6935 29.7855 96.8023 29.7855C110.911 29.7855 123.452 34.8803 133.642 44.6781C143.831 54.8677 148.926 67.0169 148.926 81.5176V132.858H127.371V81.5176Z" fill="white"/>
<path d="M208.888 71.3275C213.199 71.3275 217.118 72.1113 221.037 73.679C224.956 75.2466 228.091 77.5981 230.835 80.3414C233.578 83.0848 235.538 86.2201 237.497 90.1392C239.065 93.6664 239.849 97.9774 239.849 101.896C239.849 105.816 239.065 110.127 237.497 114.046C235.929 117.573 233.578 121.1 230.835 123.843C228.091 126.587 224.956 128.938 221.037 130.506C217.51 132.073 213.199 132.857 208.888 132.857H159.899V112.478H209.28C212.023 112.478 214.374 110.91 216.334 108.951C218.294 106.991 219.077 104.64 219.077 101.896C219.077 99.1531 217.902 96.4097 215.942 94.4502C213.983 92.4906 211.239 91.3149 208.496 91.3149H189.292C184.981 91.3149 181.062 90.1392 177.535 88.5715C173.616 87.0039 170.481 84.6524 167.737 81.9091C164.994 79.1657 163.034 76.0304 161.467 72.1113C159.899 68.1922 159.115 64.2731 159.115 60.354C159.115 56.4349 159.899 52.1239 161.467 48.2048C163.034 44.2858 165.386 41.1505 168.129 38.4071C170.872 35.6637 174.008 33.3123 177.927 31.7446C181.454 30.177 185.765 29.3932 190.076 29.3932H218.685V49.7725H190.076C187.333 49.7725 184.589 50.9482 182.63 52.9078C180.67 54.8673 179.494 57.2188 179.494 60.354C179.494 63.4893 180.67 65.8408 182.63 67.8003C184.589 69.7599 186.941 70.9356 190.076 70.9356H208.888V71.3275Z" fill="white"/>
<path d="M337.825 45.0704C348.015 55.2601 353.11 67.4093 353.11 81.9099C353.11 96.4106 348.015 108.56 337.825 118.357C327.635 128.547 315.094 133.25 300.986 133.25C289.62 133.25 279.431 130.115 270.417 123.452V155.981H248.862V81.9099C248.862 67.8012 253.956 55.652 264.146 45.0704C274.336 34.8808 286.485 30.1779 300.986 30.1779C315.486 30.1779 327.635 35.2727 337.825 45.0704ZM322.933 103.857C328.811 97.9782 331.555 90.5319 331.555 81.9099C331.555 73.2879 328.811 66.2335 322.933 59.963C317.054 53.6924 310 50.9491 301.378 50.9491C292.756 50.9491 285.701 54.0843 279.822 59.963C273.944 66.2335 271.2 73.2879 271.2 81.9099C271.2 90.5319 273.944 97.9782 279.822 103.857C285.701 109.735 292.756 112.871 301.378 112.871C310 112.871 317.054 109.735 322.933 103.857Z" fill="white"/>
<path d="M496.941 49.7733C514.969 49.7733 529.47 64.274 529.47 82.3018C529.47 100.33 514.969 114.83 496.941 114.83H414.64C396.612 114.83 382.112 100.33 382.112 82.3018C382.112 64.274 396.612 49.7733 414.64 49.7733H496.941ZM496.941 30.1779H414.64C385.639 30.1779 362.516 53.6924 362.516 82.3018C362.516 110.911 386.031 134.426 414.64 134.426H496.941C525.943 134.426 549.065 110.911 549.065 82.3018C549.065 53.6924 525.551 30.1779 496.941 30.1779Z" fill="url(#paint0_linear_5_2803)"/>
</g>
<defs>
<linearGradient id="paint0_linear_5_2803" x1="549.065" y1="82.3018" x2="391.91" y2="78.3832" gradientUnits="userSpaceOnUse">
<stop stop-color="#41F461"/>
<stop offset="0.5" stop-color="#008CFF"/>
<stop offset="1" stop-color="white"/>
</linearGradient>
<clipPath id="clip0_5_2803">
<rect width="748.547" height="155.98" fill="white"/>
</clipPath>
</defs>
</svg>
